<svg width="125" height="71" viewBox="0 0 125 71" fill="none" xmlns="http://www.w3.org/2000/svg">
<circle cx="35.1827" cy="16.2367" r="7.29589" fill="#FFB500"/>
<path d="M40.2242 25.705C8.66332 25.705 6.04008 1.44 6.04008 1.44C6.04008 1.44 5.67117 32.673 40.3062 32.673C56.7438 32.673 66.7435 28.4512 71.6621 25.623C76.5807 22.7948 78.1278 21.9714 78.3432 17.3844C78.7531 8.65392 71.7851 25.705 40.2242 25.705Z" fill="#FFB500"/>
<path d="M29.376 55.3537C30.1135 55.3662 30.7885 55.2287 31.401 54.9412C32.0135 54.6537 32.5197 54.2412 32.9197 53.7037C33.3322 53.1662 33.6197 52.5475 33.7822 51.8475L37.9635 51.8287C37.801 53.2787 37.2885 54.5412 36.426 55.6162C35.576 56.6912 34.5135 57.5225 33.2385 58.11C31.976 58.685 30.6385 58.96 29.226 58.935C27.7885 58.91 26.5572 58.6162 25.5322 58.0537C24.5197 57.4912 23.701 56.735 23.076 55.785C22.451 54.835 22.0135 53.76 21.7635 52.56C21.526 51.3475 21.4697 50.0912 21.5947 48.7912L21.6697 48.1162C21.8197 46.7287 22.151 45.4162 22.6635 44.1787C23.1885 42.9412 23.8822 41.8475 24.7447 40.8975C25.6197 39.935 26.651 39.185 27.8385 38.6475C29.026 38.11 30.3635 37.86 31.851 37.8975C33.351 37.9225 34.6447 38.2662 35.7322 38.9287C36.8197 39.5912 37.651 40.4975 38.226 41.6475C38.801 42.785 39.0822 44.085 39.0697 45.5475L34.926 45.5287C34.926 44.8287 34.8072 44.1787 34.5697 43.5787C34.3447 42.9662 33.9822 42.4725 33.4822 42.0975C32.9947 41.71 32.3572 41.5037 31.5697 41.4787C30.6447 41.4537 29.851 41.635 29.1885 42.0225C28.5385 42.41 27.9947 42.935 27.5572 43.5975C27.1322 44.26 26.7947 44.9912 26.5447 45.7912C26.3072 46.5787 26.1447 47.36 26.0572 48.135L25.9822 48.7912C25.9197 49.4537 25.8947 50.1662 25.9072 50.9287C25.9322 51.6787 26.051 52.385 26.2635 53.0475C26.476 53.71 26.826 54.2537 27.3135 54.6787C27.8135 55.1037 28.501 55.3287 29.376 55.3537ZM49.251 58.935C47.8635 58.91 46.6322 58.6412 45.5572 58.1287C44.4947 57.6037 43.6135 56.8975 42.9135 56.01C42.2135 55.11 41.7072 54.0787 41.3947 52.9162C41.0822 51.7412 40.976 50.4912 41.076 49.1662L41.151 48.3975C41.2885 47.035 41.6197 45.7225 42.1447 44.46C42.6697 43.185 43.3697 42.0537 44.2447 41.0662C45.1322 40.0662 46.176 39.2787 47.376 38.7037C48.576 38.1287 49.9135 37.86 51.3885 37.8975C52.801 37.9225 53.9947 38.2162 54.9697 38.7787C55.9447 39.3412 56.7197 40.0912 57.2947 41.0287C57.8697 41.9537 58.251 43.0037 58.4385 44.1787C58.6385 45.3537 58.6697 46.5725 58.5322 47.835L58.2697 49.7662H43.0447L43.5697 46.5225L54.3135 46.5412L54.3885 46.1475C54.501 45.36 54.4572 44.6162 54.2572 43.9162C54.0697 43.2162 53.7197 42.6412 53.2072 42.1912C52.6947 41.7412 52.0072 41.5037 51.1447 41.4787C50.2072 41.4537 49.401 41.6475 48.726 42.06C48.0635 42.4725 47.5135 43.0287 47.076 43.7287C46.6385 44.4287 46.2947 45.1912 46.0447 46.0162C45.8072 46.8287 45.6385 47.6225 45.5385 48.3975L45.4635 49.1475C45.3885 49.885 45.4072 50.6162 45.5197 51.3412C45.6322 52.0662 45.851 52.7287 46.176 53.3287C46.501 53.9162 46.951 54.3975 47.526 54.7725C48.101 55.135 48.8135 55.3287 49.6635 55.3537C50.726 55.3787 51.6885 55.16 52.551 54.6975C53.426 54.2225 54.2197 53.61 54.9322 52.86L57.1072 55.1662C56.5322 56.0287 55.8197 56.7412 54.9697 57.3037C54.1322 57.8662 53.2197 58.285 52.2322 58.56C51.2572 58.8225 50.2635 58.9475 49.251 58.935ZM66.051 58.56H61.626L65.4135 36.3225C65.5885 34.8975 66.0135 33.66 66.6885 32.61C67.3635 31.5475 68.251 30.7287 69.351 30.1537C70.451 29.5787 71.7385 29.2975 73.2135 29.31C73.6635 29.3225 74.1135 29.36 74.5635 29.4225C75.0135 29.485 75.4572 29.5662 75.8947 29.6662L75.4635 33.1912C75.1885 33.1287 74.9072 33.0787 74.6197 33.0412C74.3447 33.0037 74.0635 32.9787 73.776 32.9662C73.0635 32.9662 72.4322 33.1037 71.8822 33.3787C71.3447 33.6537 70.901 34.0412 70.551 34.5412C70.2135 35.0287 69.9885 35.6225 69.876 36.3225L66.051 58.56ZM73.626 38.2725L73.026 41.5725H61.551L62.151 38.2725H73.626ZM81.9135 58.935C80.526 58.91 79.2947 58.6412 78.2197 58.1287C77.1572 57.6037 76.276 56.8975 75.576 56.01C74.876 55.11 74.3697 54.0787 74.0572 52.9162C73.7447 51.7412 73.6385 50.4912 73.7385 49.1662L73.8135 48.3975C73.951 47.035 74.2822 45.7225 74.8072 44.46C75.3322 43.185 76.0322 42.0537 76.9072 41.0662C77.7947 40.0662 78.8385 39.2787 80.0385 38.7037C81.2385 38.1287 82.576 37.86 84.051 37.8975C85.4635 37.9225 86.6572 38.2162 87.6322 38.7787C88.6072 39.3412 89.3822 40.0912 89.9572 41.0287C90.5322 41.9537 90.9135 43.0037 91.101 44.1787C91.301 45.3537 91.3322 46.5725 91.1947 47.835L90.9322 49.7662H75.7072L76.2322 46.5225L86.976 46.5412L87.051 46.1475C87.1635 45.36 87.1197 44.6162 86.9197 43.9162C86.7322 43.2162 86.3822 42.6412 85.8697 42.1912C85.3572 41.7412 84.6697 41.5037 83.8072 41.4787C82.8697 41.4537 82.0635 41.6475 81.3885 42.06C80.726 42.4725 80.176 43.0287 79.7385 43.7287C79.301 44.4287 78.9572 45.1912 78.7072 46.0162C78.4697 46.8287 78.301 47.6225 78.201 48.3975L78.126 49.1475C78.051 49.885 78.0697 50.6162 78.1822 51.3412C78.2947 52.0662 78.5135 52.7287 78.8385 53.3287C79.1635 53.9162 79.6135 54.3975 80.1885 54.7725C80.7635 55.135 81.476 55.3287 82.326 55.3537C83.3885 55.3787 84.351 55.16 85.2135 54.6975C86.0885 54.2225 86.8822 53.61 87.5947 52.86L89.7697 55.1662C89.1947 56.0287 88.4822 56.7412 87.6322 57.3037C86.7947 57.8662 85.8822 58.285 84.8947 58.56C83.9197 58.8225 82.926 58.9475 81.9135 58.935ZM99.9885 42.36L97.176 58.56H92.7697L96.2947 38.2725H100.476L99.9885 42.36ZM106.588 38.1037L106.101 42.3225C105.813 42.2725 105.52 42.2287 105.22 42.1912C104.932 42.1537 104.645 42.135 104.357 42.135C103.595 42.1225 102.907 42.2287 102.295 42.4537C101.682 42.6787 101.145 43.0037 100.682 43.4287C100.22 43.8412 99.8322 44.3412 99.5197 44.9287C99.2072 45.5037 98.9635 46.1475 98.7885 46.86L97.7385 46.935C97.8635 45.9475 98.076 44.9225 98.376 43.86C98.6885 42.7975 99.1197 41.81 99.6697 40.8975C100.22 39.9725 100.92 39.2287 101.77 38.6662C102.62 38.0912 103.651 37.8162 104.863 37.8412C105.151 37.8412 105.438 37.8662 105.726 37.9162C106.013 37.9662 106.301 38.0287 106.588 38.1037Z" fill="#E9E9E9"/>
</svg>
